# xmcd
#
# Track frame offsets: 
#        150
#        23312
#        48865
#        72565
#        94647
#        120847
#        140095
#        166852
#        191425
#        216182
#        240012
#        256650
#        280115
#        301227
#        321600
#
# Disc length: 4578 seconds
#
# Revision: 2
# Processed by: cddbd v1.5.2PL0 Copyright (c) Steve Scherf et al.
# Submitted via: ExactAudioCopy v1.0b4
#
DISCID=bf11e00f
DTITLE=中山美穂 - Ballads II
DYEAR=1996
DGENRE=Pop
TTITLE0=Silent
TTITLE1=誰かが愛に…
TTITLE2=Flash Back
TTITLE3=kiss kiss kiss
TTITLE4=Treasure
TTITLE5=幸せになるために
TTITLE6=こんな日の雨なら大好き -The Rain Came Down-
TTITLE7=あなたを宇宙へ届けたい
TTITLE8=16ブランコ
TTITLE9=LOVE
TTITLE10=SWEET N’ SOUR SOUP
TTITLE11=Rain Ring
TTITLE12=不意のKiss
TTITLE13=Angel
TTITLE14=Thinking About You 〜あなたの夜を包みたい〜
EXTD=
EXTT0=
EXTT1=
EXTT2=
EXTT3=
EXTT4=
EXTT5=
EXTT6=
EXTT7=
EXTT8=
EXTT9=
EXTT10=
EXTT11=
EXTT12=
EXTT13=
EXTT14=
PLAYORDER=
